<?xml version="1.0" encoding="UTF-8"?>
<svg id="b" data-name="Layer 2" xmlns="http://www.w3.org/2000/svg" width="157.57" height="151.95" viewBox="0 0 157.57 151.95">
  <g id="c" data-name="OBJECTS">
    <g>
      <path d="M52.44,38.2c6.78,2.96,13.19,5.75,26.34,5.75s19.55-2.79,26.33-5.75c7.05-3.08,14.34-6.25,28.73-6.25,3.81,0,7.13,.22,10.07,.61-1.52-2.24-3.16-4.39-4.91-6.45-1.6-.1-3.31-.16-5.16-.16-13.14,0-19.55,2.79-26.33,5.75-7.05,3.07-14.34,6.25-28.73,6.25s-21.69-3.18-28.74-6.25c-6.78-2.96-13.19-5.75-26.33-5.75-1.84,0-3.55,.05-5.14,.16-1.75,2.06-3.38,4.21-4.9,6.44,2.93-.38,6.24-.6,10.04-.6,14.39,0,21.68,3.17,28.73,6.25Z" fill="#cda26f"/>
      <path d="M52.44,62.2c6.78,2.96,13.19,5.75,26.34,5.75s19.55-2.79,26.33-5.75c7.05-3.08,14.34-6.25,28.73-6.25,9.86,0,16.38,1.49,21.78,3.41-.48-2.11-1.05-4.19-1.69-6.23-5.03-1.82-10.92-3.18-20.09-3.18-13.14,0-19.55,2.79-26.33,5.75-7.05,3.07-14.34,6.25-28.73,6.25s-21.69-3.18-28.74-6.25c-6.78-2.96-13.19-5.75-26.33-5.75-9.15,0-15.04,1.35-20.06,3.18-.65,2.04-1.22,4.12-1.7,6.23,5.39-1.93,11.91-3.41,21.76-3.41,14.39,0,21.68,3.17,28.73,6.25Z" fill="#cda26f"/>
      <path d="M52.44,50.2c6.78,2.96,13.19,5.75,26.34,5.75s19.55-2.79,26.33-5.75c7.05-3.08,14.34-6.25,28.73-6.25,7.37,0,12.88,.83,17.45,2.06-.97-2.26-2.04-4.47-3.2-6.61-3.82-.89-8.37-1.45-14.25-1.45-13.14,0-19.55,2.79-26.33,5.75-7.05,3.07-14.34,6.25-28.73,6.25s-21.69-3.18-28.74-6.25c-6.78-2.96-13.19-5.75-26.33-5.75-5.88,0-10.41,.56-14.23,1.45-1.16,2.14-2.23,4.34-3.19,6.6,4.56-1.22,10.06-2.05,17.42-2.05,14.39,0,21.68,3.17,28.73,6.25Z" fill="#cda26f"/>
      <path d="M78.78,31.95c13.14,0,19.55-2.79,26.33-5.75,6.95-3.04,14.13-6.16,28.11-6.25-2.11-2.01-4.33-3.9-6.65-5.67-8.51,.82-13.67,3.06-19.06,5.42-7.05,3.07-14.34,6.25-28.73,6.25s-21.69-3.18-28.74-6.25c-5.39-2.35-10.55-4.6-19.04-5.42-2.32,1.77-4.54,3.66-6.65,5.67,13.97,.1,21.15,3.22,28.09,6.25,6.78,2.96,13.19,5.75,26.34,5.75Z" fill="#cda26f"/>
      <path d="M78.78,19.95c13.14,0,19.55-2.79,26.33-5.75,4.16-1.82,8.41-3.67,14.15-4.88-2.22-1.34-4.51-2.56-6.87-3.67-1.67,.65-3.27,1.35-4.88,2.05-7.05,3.07-14.34,6.25-28.73,6.25s-21.69-3.18-28.74-6.25c-1.61-.7-3.2-1.4-4.87-2.05-2.36,1.11-4.65,2.34-6.87,3.67,5.73,1.21,9.98,3.06,14.14,4.88,6.78,2.96,13.19,5.75,26.34,5.75Z" fill="#cda26f"/>
      <path d="M104.54,2.45c-2.83-.98-5.73-1.8-8.7-2.45-4.5,1.17-9.9,1.95-17.06,1.95s-12.56-.78-17.06-1.95c-2.97,.65-5.87,1.47-8.7,2.45,6.57,2.87,12.99,5.5,25.76,5.5s19.19-2.64,25.76-5.5Z" fill="#cda26f"/>
      <path d="M107.51,79.7c-7.05,3.07-14.34,6.25-28.73,6.25s-21.69-3.18-28.74-6.25c-6.78-2.96-13.19-5.75-26.33-5.75-11.44,0-17.78,2.12-23.71,4.62,.03,1.82,.13,3.61,.3,5.39,5.72-2.2,12.54-4.01,23.41-4.01,14.39,0,21.68,3.17,28.73,6.25,6.78,2.96,13.19,5.75,26.34,5.75s19.55-2.79,26.33-5.75c7.05-3.08,14.34-6.25,28.73-6.25,10.88,0,17.7,1.81,23.43,4.02,.17-1.78,.27-3.58,.3-5.4-5.93-2.5-12.27-4.62-23.73-4.62-13.14,0-19.55,2.79-26.33,5.75Z" fill="#cda26f"/>
      <path d="M52.44,74.2c6.78,2.96,13.19,5.75,26.34,5.75s19.55-2.79,26.33-5.75c7.05-3.08,14.34-6.25,28.73-6.25,10.98,0,17.83,1.84,23.59,4.09-.11-1.94-.3-3.86-.56-5.76-5.73-2.37-12.02-4.33-23.03-4.33-13.14,0-19.55,2.79-26.33,5.75-7.05,3.07-14.34,6.25-28.73,6.25s-21.69-3.18-28.74-6.25c-6.78-2.96-13.19-5.75-26.33-5.75-11,0-17.28,1.95-23.01,4.33-.26,1.9-.45,3.81-.56,5.75,5.75-2.24,12.6-4.08,23.57-4.08,14.39,0,21.68,3.17,28.73,6.25Z" fill="#cda26f"/>
      <path d="M107.51,91.7c-7.05,3.07-14.34,6.25-28.73,6.25s-21.69-3.18-28.74-6.25c-6.78-2.96-13.19-5.75-26.33-5.75-10.75,0-17,1.87-22.63,4.17,.29,1.74,.64,3.47,1.05,5.17,5.36-1.89,11.84-3.34,21.58-3.34,14.39,0,21.68,3.17,28.73,6.25,6.78,2.96,13.19,5.75,26.34,5.75s19.55-2.79,26.33-5.75c7.05-3.08,14.34-6.25,28.73-6.25,9.75,0,16.24,1.45,21.6,3.35,.41-1.71,.76-3.43,1.05-5.18-5.63-2.3-11.88-4.17-22.65-4.17-13.14,0-19.55,2.79-26.33,5.75Z" fill="#cda26f"/>
      <path d="M107.51,115.7c-7.05,3.07-14.34,6.25-28.73,6.25s-21.69-3.18-28.74-6.25c-6.78-2.96-13.19-5.75-26.33-5.75-6.62,0-11.53,.71-15.64,1.8,.87,1.78,1.81,3.53,2.83,5.23,3.59-.64,7.77-1.03,12.81-1.03,14.39,0,21.68,3.17,28.73,6.25,6.78,2.96,13.19,5.75,26.34,5.75s19.55-2.79,26.33-5.75c7.05-3.08,14.34-6.25,28.73-6.25,5.05,0,9.23,.39,12.83,1.03,1.02-1.7,1.96-3.45,2.83-5.23-4.11-1.09-9.03-1.8-15.66-1.8-13.14,0-19.55,2.79-26.33,5.75Z" fill="#cda26f"/>
      <path d="M107.51,103.7c-7.05,3.07-14.34,6.25-28.73,6.25s-21.69-3.18-28.74-6.25c-6.78-2.96-13.19-5.75-26.33-5.75-9.09,0-14.96,1.34-19.96,3.14,.55,1.73,1.16,3.43,1.84,5.1,4.7-1.32,10.38-2.24,18.12-2.24,14.39,0,21.68,3.17,28.73,6.25,6.78,2.96,13.19,5.75,26.34,5.75s19.55-2.79,26.33-5.75c7.05-3.08,14.34-6.25,28.73-6.25,7.74,0,13.43,.92,18.13,2.25,.68-1.68,1.3-3.38,1.85-5.11-5-1.8-10.88-3.14-19.98-3.14-13.14,0-19.55,2.79-26.33,5.75Z" fill="#cda26f"/>
      <path d="M107.51,127.7c-7.05,3.07-14.34,6.25-28.73,6.25s-21.69-3.18-28.74-6.25c-6.78-2.96-13.19-5.75-26.33-5.75-3.52,0-6.56,.2-9.24,.55,1.37,1.93,2.82,3.79,4.36,5.58,1.53-.08,3.15-.13,4.88-.13,14.39,0,21.68,3.17,28.73,6.25,6.78,2.96,13.19,5.75,26.34,5.75s19.55-2.79,26.33-5.75c7.05-3.08,14.34-6.25,28.73-6.25,1.73,0,3.36,.05,4.9,.13,1.54-1.79,2.99-3.65,4.35-5.57-2.69-.36-5.73-.56-9.25-.56-13.14,0-19.55,2.79-26.33,5.75Z" fill="#cda26f"/>
      <path d="M78.78,145.95c-14.4,0-21.69-3.18-28.74-6.25-6.67-2.91-12.97-5.66-25.67-5.74,2.4,2.28,4.93,4.41,7.6,6.39,9.21,.94,14.91,3.42,20.47,5.85,6.78,2.96,13.19,5.75,26.34,5.75s19.55-2.79,26.33-5.75c5.56-2.43,11.26-4.91,20.49-5.86,2.67-1.97,5.2-4.1,7.6-6.38-12.71,.08-19.02,2.83-25.69,5.74-7.05,3.07-14.34,6.25-28.73,6.25Z" fill="#cda26f"/>
    </g>
  </g>
</svg>