<?xml version="1.0" encoding="UTF-8"?>
<svg id="b" data-name="Layer 2" xmlns="http://www.w3.org/2000/svg" width="212.99" height="200.97" xmlns:xlink="http://www.w3.org/1999/xlink" viewBox="0 0 212.99 200.97">
  <defs>
    <linearGradient id="d" x1="328.33" y1="-86.22" x2="353.41" y2="-61.13" gradientTransform="translate(-182.44 -136.4) rotate(45)" gradientUnits="userSpaceOnUse">
      <stop offset="0" stop-color="#feb74a"/>
      <stop offset=".13" stop-color="#f9a942" stop-opacity=".72"/>
      <stop offset=".25" stop-color="#f59d3c" stop-opacity=".46"/>
      <stop offset=".37" stop-color="#f29436" stop-opacity=".26"/>
      <stop offset=".46" stop-color="#ef8d33" stop-opacity=".12"/>
      <stop offset=".54" stop-color="#ee8930" stop-opacity=".03"/>
      <stop offset=".6" stop-color="#ee8830" stop-opacity="0"/>
    </linearGradient>
  </defs>
  <g id="c" data-name="OBJECTS">
    <g>
      <path d="M145.27,137.77c.33,8.22,.33,17.28,0,25.5-.33-8.22-.33-17.28,0-25.5h0Z" fill="#f0c84a"/>
      <path d="M152.89,150.52c-5.32,.34-10.64,.34-15.96,0,5.32-.34,10.64-.34,15.96,0h0Z" fill="#f0c84a"/>
    </g>
    <polygon points="110.69 52.91 104.66 44.29 110.69 35.67 116.72 44.29 110.69 52.91" fill="url(#d)"/>
    <circle cx="129.06" cy="5.23" r="1.11" fill="#fff" opacity=".3"/>
    <circle cx="1.11" cy="85.67" r="1.11" fill="#fff" opacity=".3"/>
    <circle cx="1.11" cy="137.72" r="1.11" fill="#fff" opacity=".3"/>
    <circle cx="185.74" cy="113.96" r="1.11" fill="#fff" opacity=".3"/>
    <circle cx="44.9" cy="1.11" r="1.11" fill="#fff" opacity=".3"/>
    <circle cx="164.6" cy="73.19" r="1.11" fill="#fff" opacity=".3"/>
    <circle cx="211" cy="198.99" r="1.98" fill="#fff" opacity=".3"/>
    <circle cx="153.15" cy="104.9" r="1.98" fill="#fff" opacity=".3"/>
    <circle cx="163.15" cy="11.27" r="1.98" fill="#fff" opacity=".3"/>
    <circle cx="58.49" cy="93.86" r="1.98" fill="#fff" opacity=".3"/>
  </g>
</svg>