<?xml version="1.0" encoding="UTF-8"?>
<svg id="b" data-name="Layer 2" xmlns="http://www.w3.org/2000/svg" width="303.03" height="337.17" xmlns:xlink="http://www.w3.org/1999/xlink" viewBox="0 0 303.03 337.17">
  <defs>
    <linearGradient id="d" x1="384.91" y1="-99.75" x2="427.79" y2="-56.87" gradientTransform="translate(-332.4 44.04) rotate(45)" gradientUnits="userSpaceOnUse">
      <stop offset="0" stop-color="#feb74a"/>
      <stop offset=".13" stop-color="#f9a942" stop-opacity=".72"/>
      <stop offset=".25" stop-color="#f59d3c" stop-opacity=".46"/>
      <stop offset=".37" stop-color="#f29436" stop-opacity=".26"/>
      <stop offset=".46" stop-color="#ef8d33" stop-opacity=".12"/>
      <stop offset=".54" stop-color="#ee8930" stop-opacity=".03"/>
      <stop offset=".6" stop-color="#ee8830" stop-opacity="0"/>
    </linearGradient>
  </defs>
  <g id="c" data-name="OBJECTS">
    <g>
      <path d="M146.18,133.07c.22,9.67,.23,20.3,0,29.97-.23-9.67-.22-20.3,0-29.97h0Z" fill="#f0c84a"/>
      <path d="M155.13,148.05c-6.05,.22-12.71,.23-18.75,0,6.05-.23,12.71-.22,18.75,0h0Z" fill="#f0c84a"/>
    </g>
    <polygon points="10.31 276.63 0 261.9 10.31 247.17 20.62 261.9 10.31 276.63" fill="url(#d)"/>
    <circle cx="89.47" cy="235.7" r="1.89" fill="#fff" opacity=".3"/>
    <circle cx="251.4" cy="303.5" r="1.89" fill="#fff" opacity=".3"/>
    <circle cx="76.57" cy="209.88" r="1.89" fill="#fff" opacity=".3"/>
    <circle cx="119.76" cy="24.73" r="1.89" fill="#fff" opacity=".3"/>
    <circle cx="116.37" cy="217.63" r="3.39" fill="#fff" opacity=".3"/>
    <circle cx="299.64" cy="333.78" r="3.39" fill="#fff" opacity=".3"/>
    <circle cx="171.38" cy="69.69" r="3.39" fill="#fff" opacity=".3"/>
    <circle cx="291.9" cy="150.52" r="3.39" fill="#fff" opacity=".3"/>
    <circle cx="158.48" cy="3.39" r="3.39" fill="#fff" opacity=".3"/>
  </g>
</svg>