<?xml version="1.0" encoding="UTF-8"?>
<svg id="b" data-name="Layer 2" xmlns="http://www.w3.org/2000/svg" width="94.58" height="90.88" viewBox="0 0 94.58 90.88">
  <g id="c" data-name="Isolation Mode">
    <g>
      <path d="M91.3,36.92c-2.66-2.3-3.82-5.88-3.02-9.3h0c1.9-8.16-6.96-14.58-14.12-10.22l-10.81,6.58,2.91-12.32c1.93-8.15-6.92-14.6-14.09-10.27-3.01,1.82-6.77,1.82-9.78,0h0c-7.17-4.33-16.01,2.11-14.09,10.26l2.91,12.32-10.81-6.58c-7.16-4.35-16.02,2.07-14.12,10.22h0c.8,3.42-.36,7-3.02,9.3h0c-6.34,5.48-2.94,15.88,5.41,16.57l12.62,1.03-9.6,8.25c-6.35,5.46-2.99,15.87,5.36,16.58h0c3.5,.3,6.55,2.51,7.91,5.75h0c3.25,7.72,14.2,7.7,17.43-.03l4.88-11.68,4.88,11.68c3.23,7.73,14.18,7.74,17.43,.03,1.36-3.24,4.41-5.45,7.91-5.75h0c8.35-.71,11.71-11.12,5.36-16.58l-9.6-8.25,12.61-1.03c8.35-.68,11.75-11.09,5.41-16.57Z" fill="#cda26f"/>
      <path d="M62.98,43.74c0,8.66-7.02,15.68-15.68,15.68s-15.68-7.02-15.68-15.68,7.02-15.68,15.68-15.68,15.68,7.02,15.68,15.68Z" fill="#04192a"/>
    </g>
  </g>
</svg>