<?xml version="1.0" encoding="UTF-8"?>
<svg id="b" data-name="Layer 2" xmlns="http://www.w3.org/2000/svg" width="77.32" height="71" xmlns:xlink="http://www.w3.org/1999/xlink" viewBox="0 0 77.32 71">
  <defs>
    <linearGradient id="d" x1="60.34" y1="-11.2" x2="75.3" y2="23.86" gradientTransform="matrix(1, 0, 0, 1, 0, 0)" gradientUnits="userSpaceOnUse">
      <stop offset="0" stop-color="#ffebce"/>
      <stop offset=".36" stop-color="#ffd290"/>
      <stop offset=".68" stop-color="#d99f61"/>
      <stop offset="1" stop-color="#b36b2b"/>
    </linearGradient>
    <linearGradient id="e" x1="52.76" y1="-16.59" x2="79.29" y2="63.3" xlink:href="#d"/>
    <linearGradient id="f" x1="35.98" y1="18.58" x2="79.99" y2="64.37" xlink:href="#d"/>
    <linearGradient id="g" x1="-91.38" y1="-1.88" x2="78.1" y2="54.9" gradientTransform="matrix(1, 0, 0, 1, 0, 0)" gradientUnits="userSpaceOnUse">
      <stop offset="0" stop-color="#ffebce"/>
      <stop offset=".47" stop-color="#ffd290"/>
      <stop offset=".72" stop-color="#d99f61"/>
      <stop offset="1" stop-color="#b36b2b"/>
    </linearGradient>
    <radialGradient id="h" cx="31.63" cy="38.96" fx="-4.82" fy="61.2" r="56.58" gradientTransform="translate(17.2 2.34) rotate(31.97) scale(1 .6)" gradientUnits="userSpaceOnUse">
      <stop offset=".21" stop-color="#96542b"/>
      <stop offset=".26" stop-color="#a05e2e"/>
      <stop offset=".41" stop-color="#b57136"/>
      <stop offset=".5" stop-color="#bd7939"/>
      <stop offset=".62" stop-color="#bd7939"/>
      <stop offset=".87" stop-color="#96542b"/>
    </radialGradient>
    <radialGradient id="i" cx="34.36" cy="18.38" fx="34.36" fy="-95.3" r="113.68" gradientTransform="translate(1.02 8.94) rotate(8.34) scale(1 .24)" gradientUnits="userSpaceOnUse">
      <stop offset="0" stop-color="#ffebce"/>
      <stop offset=".36" stop-color="#ffd290"/>
      <stop offset=".83" stop-color="#d99f61"/>
      <stop offset=".9" stop-color="#d79c5e"/>
      <stop offset=".93" stop-color="#d19456"/>
      <stop offset=".96" stop-color="#c78748"/>
      <stop offset=".99" stop-color="#ba7435"/>
      <stop offset="1" stop-color="#b36b2b"/>
    </radialGradient>
    <linearGradient id="j" x1="1.34" y1="29.4" x2="16.34" y2="29.4" gradientTransform="matrix(1, 0, 0, 1, 0, 0)" gradientUnits="userSpaceOnUse">
      <stop offset="0" stop-color="#f19e56"/>
      <stop offset=".65" stop-color="#ee8830"/>
      <stop offset="1" stop-color="#f0974a"/>
    </linearGradient>
    <linearGradient id="k" x1="-1.41" y1="9.5" x2="-1.41" y2="-18" gradientTransform="translate(64.11 13.96) rotate(1.21) scale(1.1 .91) skewX(-1.82)" gradientUnits="userSpaceOnUse">
      <stop offset=".13" stop-color="#e5a158"/>
      <stop offset=".32" stop-color="#e9aa64"/>
      <stop offset=".67" stop-color="#f5c485"/>
      <stop offset=".68" stop-color="#f6c586"/>
      <stop offset=".8" stop-color="#ffd696"/>
    </linearGradient>
    <linearGradient id="l" x1="-19.6" y1="9.5" x2="-19.6" y2="-18" xlink:href="#k"/>
    <linearGradient id="m" x1="-34.18" y1="9.5" x2="-34.18" y2="-18" xlink:href="#k"/>
    <linearGradient id="n" x1="26.63" y1="6.19" x2="27.84" y2="6.19" gradientTransform="matrix(1, 0, 0, 1, 0, 0)" gradientUnits="userSpaceOnUse">
      <stop offset="0" stop-color="#eabd54"/>
      <stop offset=".15" stop-color="#f5d674"/>
      <stop offset=".28" stop-color="#ffed91"/>
      <stop offset=".48" stop-color="#ffed91"/>
      <stop offset=".71" stop-color="#c27917"/>
      <stop offset=".74" stop-color="#cb8c29"/>
      <stop offset=".82" stop-color="#e1b753"/>
      <stop offset=".89" stop-color="#f1d671"/>
      <stop offset=".96" stop-color="#fbe983"/>
      <stop offset="1" stop-color="#fff08a"/>
    </linearGradient>
    <linearGradient id="o" x1="27.22" y1="8.38" x2="58.97" y2="8.38" xlink:href="#n"/>
    <linearGradient id="p" x1="60.43" y1="11.86" x2="64.95" y2="11.86" xlink:href="#n"/>
  </defs>
  <g id="c" data-name="OBJECTS">
    <g>
      <path d="M67.72,3.52s7.94,3.01,8.21,21.63l-5.65-4.15-2.57-17.48Z" fill="url(#d)"/>
      <path d="M69.85,11.4s5.81,5.8,7.18,15.66c1.37,9.86-2.16,24.03-10.1,30.05l2.92-45.72Z" fill="url(#e)"/>
      <path d="M54.37,71s5.44-.74,8.73-3.75c3.29-3.01,15.51-29.87,7.19-46.25l-5.39,9.56-10.53,40.45Z" fill="url(#f)"/>
      <path d="M9.35,7.81l-.81,4.31L.25,42.3h0c-.73,1.99,.19,4.2,2.12,5.08l52,23.62s11-12.56,12.22-39.53L9.35,7.81Z" fill="url(#g)"/>
      <path d="M.25,42.3L8.54,12.12l54.46,22.49s.02,9.58-4.62,20.25c-3.43,7.88-5.68,10.92-5.68,10.92L.25,42.3Z" fill="url(#h)"/>
      <path d="M66.59,31.47L9.35,7.81h0c.56-1.68,2-2.92,3.74-3.23l54.63-1.07s3.83,3.29,2.13,7.88c0,0,2.15,2.89,2.24,4.72,.2,4.2-1.8,4.87-1.8,4.87,0,0,3.61,7.49-3.7,10.47Z" fill="url(#i)"/>
      <path d="M6.73,17.71c.38-.98,1.63-1.25,2.39-.52,3.07,2.96,9.33,10.3,6.51,18.75-2.69,8.07-9.24,6.29-12.57,4.76-1.22-.56-1.9-1.86-1.68-3.19,.38-2.27,1.11-6.11,2.23-10.18,1.3-4.73,2.41-7.84,3.11-9.63Z" fill="url(#j)"/>
      <g>
        <g>
          <path d="M61.01,5.73c2.15,2.99-.1,4.93,.25,7.78,.19,1.54,1.54,2.54,1.29,4.23-.32,2.15-2.01,3.8-4.51,4.82-1.87,.76-.34,2.93,1.54,2.16,4.03-1.64,6.54-4.71,6.28-8.16-.06-.75-.39-1.39-.55-2.1-.33-1.47-.1-2.36,.1-3.83,.3-2.27-.01-4.06-1.47-6.08-1-1.38-3.92-.21-2.92,1.18h0Z" fill="#c7793f"/>
          <path d="M27.58,6.45c2.53,4.21,10.63,7.08,15.96,8.72,4.57,1.4,12.04,3.44,14.78-1.05,1.96-3.21-.23-6.9-4.8-7.76-8.49-1.6-19.55,2.65-27.35,4.82-1.97,.55-1.27,2.95,.73,2.39,5.5-1.53,10.99-3.15,16.7-4.17,3.59-.64,14.73-1.91,11.86,3.48-2.78,5.24-22.77-3.95-24.97-7.62-.86-1.44-3.78-.25-2.92,1.18h0Z" fill="#c7793f"/>
          <path d="M24.52,3.71c.71,3.05,.58,6.07-.4,9.1-.5,1.54,2.63,2.27,3.14,.72,1.13-3.46,1.3-6.92,.48-10.41-.36-1.56-3.58-.97-3.22,.59h0Z" fill="#c7793f"/>
        </g>
        <g>
          <path d="M61.79,3.52c2.15,2.99-.1,4.93,.25,7.78,.19,1.54,1.54,2.54,1.29,4.23-.32,2.15-2.01,3.8-4.51,4.82-1.87,.76-.34,2.93,1.54,2.16,4.03-1.64,6.54-4.71,6.28-8.16-.06-.75-.39-1.39-.55-2.1-.33-1.47-.1-2.36,.1-3.83,.3-2.27-.01-4.06-1.47-6.08-1-1.38-3.92-.21-2.92,1.18h0Z" fill="url(#k)"/>
          <path d="M28.35,4.24c2.53,4.21,10.63,7.08,15.96,8.72,4.57,1.4,12.04,3.44,14.78-1.05,1.96-3.21-.23-6.9-4.8-7.76-8.49-1.6-19.55,2.65-27.35,4.82-1.97,.55-1.27,2.95,.73,2.39,5.5-1.53,10.99-3.15,16.7-4.17,3.59-.64,14.73-1.91,11.86,3.48-2.78,5.24-22.77-3.95-24.97-7.62-.86-1.44-3.78-.25-2.92,1.18h0Z" fill="url(#l)"/>
          <path d="M25.29,1.5c.71,3.05,.58,6.07-.4,9.1-.5,1.54,2.63,2.27,3.14,.72,1.13-3.46,1.3-6.92,.48-10.41-.36-1.56-3.58-.97-3.22,.59h0Z" fill="url(#m)"/>
        </g>
      </g>
      <path d="M27.07,1.55c.52,3.11,.28,6.29-.68,9.29-.15,.46,.58,.66,.72,.2,1-3.13,1.22-6.45,.68-9.69-.08-.47-.8-.27-.72,.2h0Z" fill="url(#n)"/>
      <path d="M27.47,10.44c4.91-2.33,10.13-3.94,15.5-4.75,2.74-.41,5.8-.88,8.57-.42,1.24,.21,2.46,.51,3.69,.74,.71,.13,1.39,.31,1.97,.75,2.73,2.02,.6,5.28-1.98,6.03-1.89,.55-4.01,.35-5.94,.12-2.21-.27-4.4-.79-6.51-1.51-4.72-1.62-9.24-4.34-12.28-8.36-.29-.38-.94,0-.65,.38,2.9,3.85,7.04,6.53,11.5,8.26,2.4,.93,4.92,1.58,7.47,1.92,2.14,.29,4.49,.53,6.59-.09,2.52-.74,4.77-3.3,3.4-5.99-.62-1.22-1.84-1.93-3.15-2.19-1.37-.28-2.77-.6-4.15-.81-1.52-.24-3.06-.12-4.58-.01-6.89,.51-13.61,2.34-19.85,5.29-.44,.21-.06,.85,.38,.65h0Z" fill="url(#o)"/>
      <path d="M60.67,21.62c2.92-1.44,4.74-4.7,4.52-7.95-.06-.81-.26-1.57-.54-2.34-.46-1.24-.08-2.22,.15-3.46,.35-1.92,.33-3.89-.63-5.63-.23-.42-.88-.04-.65,.38,.99,1.8,.85,3.88,.4,5.82-.17,.74-.43,1.48-.27,2.24,.17,.81,.58,1.53,.72,2.35,.54,3.18-1.19,6.52-4.07,7.94-.43,.21-.05,.86,.38,.65h0Z" fill="url(#p)"/>
      <g opacity=".21">
        <path d="M17.8,20.31c.82,.58,1.9,.76,2.86,.49,.46-.13,.27-.85-.2-.72-.23,.06-.37,.09-.6,.09-.21,0-.4,0-.56-.04-.43-.08-.77-.22-1.12-.48-.16-.12-.42-.03-.51,.13-.11,.19-.03,.39,.13,.51h0Z" fill="#fff"/>
      </g>
      <g opacity=".21">
        <path d="M29.66,25.28c5.84,2.79,11.83,5.25,17.95,7.37,.46,.16,.65-.57,.2-.72-6.05-2.1-11.98-4.54-17.77-7.29-.43-.21-.81,.44-.38,.65h0Z" fill="#fff"/>
      </g>
      <g opacity=".21">
        <path d="M51.72,34.15c1.07,.36,2.12,.82,3.18,1.23,1.58,.62,3.15,1.24,4.73,1.85,.44,.17,.87,.35,1.31,.5s.65-.57,.2-.72c-1.07-.36-2.12-.82-3.18-1.23-1.58-.62-3.15-1.24-4.73-1.85-.44-.17-.87-.35-1.31-.5s-.65,.57-.2,.72h0Z" fill="#fff"/>
      </g>
      <g opacity=".21">
        <path d="M8.9,20.33c3.85,4.92,5.16,11.55,3.52,17.57-.13,.47,.6,.67,.72,.2,1.72-6.3,.31-13.16-3.71-18.3-.3-.38-.82,.15-.53,.53h0Z" fill="#fff"/>
      </g>
      <g opacity=".21">
        <path d="M7.47,22.18l1.6,3.56c.08,.18,.35,.23,.51,.13,.19-.11,.22-.33,.13-.51l-1.6-3.56c-.08-.18-.35-.23-.51-.13-.19,.11-.22,.33-.13,.51h0Z" fill="#fff"/>
      </g>
      <g opacity=".21">
        <path d="M52.09,61.61c4.83-6.48,7.8-14.16,8.65-22.2,.05-.48-.7-.48-.75,0-.83,7.9-3.8,15.45-8.54,21.82-.29,.39,.36,.76,.65,.38h0Z" fill="#fff"/>
      </g>
    </g>
  </g>
</svg>