<?xml version="1.0" encoding="UTF-8"?>
<svg id="b" data-name="Layer 2" xmlns="http://www.w3.org/2000/svg" width="91.18" height="114.22" xmlns:xlink="http://www.w3.org/1999/xlink" viewBox="0 0 91.18 114.22">
  <defs>
    <radialGradient id="d" cx="102.76" cy="319.98" fx="117.38" fy="266.79" r="69.9" gradientTransform="translate(-155.06 -46.01) rotate(-39.12) scale(.87 .6) skewX(2.22)" gradientUnits="userSpaceOnUse">
      <stop offset="0" stop-color="#ffddab"/>
      <stop offset=".55" stop-color="#ffd290"/>
      <stop offset=".99" stop-color="#d99f61"/>
    </radialGradient>
    <linearGradient id="e" x1="62.26" y1="258.09" x2="120.8" y2="370.97" gradientTransform="translate(-124.87 -175.26) rotate(-18.82) scale(.87 .81)" gradientUnits="userSpaceOnUse">
      <stop offset="0" stop-color="#ffebce"/>
      <stop offset=".47" stop-color="#ffd290"/>
      <stop offset=".59" stop-color="#d99f61"/>
      <stop offset="1" stop-color="#b36b2b"/>
    </linearGradient>
    <radialGradient id="f" cx="106.84" cy="348.21" fx="106.84" fy="383.74" r="81.12" gradientTransform="translate(-105.7 53.28) rotate(-48.5) scale(.86 .36) skewX(1.73)" gradientUnits="userSpaceOnUse">
      <stop offset=".16" stop-color="#a36130"/>
      <stop offset=".47" stop-color="#bd7939"/>
      <stop offset=".87" stop-color="#96542b"/>
    </radialGradient>
    <linearGradient id="g" x1="3.74" y1="58.28" x2="16.79" y2="112.59" gradientTransform="matrix(1, 0, 0, 1, 0, 0)" gradientUnits="userSpaceOnUse">
      <stop offset="0" stop-color="#ffddab"/>
      <stop offset=".24" stop-color="#ffd290"/>
      <stop offset=".99" stop-color="#d99f61"/>
    </linearGradient>
    <linearGradient id="h" x1=".84" y1="87.59" x2="14.7" y2="87.59" gradientTransform="matrix(1, 0, 0, 1, 0, 0)" gradientUnits="userSpaceOnUse">
      <stop offset="0" stop-color="#ffd290"/>
      <stop offset=".68" stop-color="#d99f61"/>
      <stop offset="1" stop-color="#b36b2b"/>
    </linearGradient>
    <linearGradient id="i" x1="40.2" y1="47.8" x2="65.9" y2="64.4" gradientTransform="matrix(1, 0, 0, 1, 0, 0)" gradientUnits="userSpaceOnUse">
      <stop offset=".18" stop-color="#cf6a30"/>
      <stop offset=".5" stop-color="#ee8830"/>
      <stop offset=".85" stop-color="#f0aa4a"/>
    </linearGradient>
    <linearGradient id="j" x1="43.09" y1="62.99" x2="36.01" y2="3.76" gradientTransform="matrix(1, 0, 0, 1, 0, 0)" gradientUnits="userSpaceOnUse">
      <stop offset=".13" stop-color="#e5a158"/>
      <stop offset=".32" stop-color="#e9aa64"/>
      <stop offset=".67" stop-color="#f5c485"/>
      <stop offset=".68" stop-color="#f6c586"/>
      <stop offset=".8" stop-color="#ffd696"/>
    </linearGradient>
    <linearGradient id="k" x1="46.11" y1="62.63" x2="39.04" y2="3.4" xlink:href="#j"/>
    <linearGradient id="l" x1="27.37" y1="64.87" x2="20.3" y2="5.64" xlink:href="#j"/>
    <linearGradient id="m" x1="26.58" y1="65.18" x2="19.44" y2="5.4" xlink:href="#j"/>
    <linearGradient id="n" x1="45.52" y1="62.7" x2="38.44" y2="3.47" xlink:href="#j"/>
    <linearGradient id="o" x1="59.95" y1="60.98" x2="52.88" y2="1.75" xlink:href="#j"/>
    <linearGradient id="p" x1="18.63" y1="65.92" x2="11.55" y2="6.68" xlink:href="#j"/>
    <linearGradient id="q" x1="29.67" y1="64.6" x2="22.59" y2="5.37" xlink:href="#j"/>
    <linearGradient id="r" x1="52.09" y1="61.92" x2="45.01" y2="2.69" xlink:href="#j"/>
    <linearGradient id="s" x1="4.13" y1="67.65" x2="16.39" y2="67.65" gradientTransform="matrix(1, 0, 0, 1, 0, 0)" gradientUnits="userSpaceOnUse">
      <stop offset="0" stop-color="#eabd54"/>
      <stop offset=".15" stop-color="#f5d674"/>
      <stop offset=".28" stop-color="#ffed91"/>
      <stop offset=".48" stop-color="#ffed91"/>
      <stop offset=".71" stop-color="#c27917"/>
      <stop offset=".74" stop-color="#cb8c29"/>
      <stop offset=".82" stop-color="#e1b753"/>
      <stop offset=".89" stop-color="#f1d671"/>
      <stop offset=".96" stop-color="#fbe983"/>
      <stop offset="1" stop-color="#fff08a"/>
    </linearGradient>
    <linearGradient id="t" x1="5.97" y1="46.06" x2="14.33" y2="46.06" xlink:href="#s"/>
    <linearGradient id="u" x1="14.09" y1="21.77" x2="75.44" y2="21.77" xlink:href="#s"/>
    <linearGradient id="v" x1="12.98" y1="40.16" x2="41.68" y2="40.16" xlink:href="#s"/>
    <linearGradient id="w" x1="32.99" y1="26.71" x2="61.92" y2="26.71" xlink:href="#s"/>
    <linearGradient id="x" x1="53.86" y1="24.51" x2="61.99" y2="24.51" xlink:href="#s"/>
    <linearGradient id="y" x1="20.37" y1="67.04" x2="34.17" y2="67.04" xlink:href="#s"/>
    <linearGradient id="z" x1="33.28" y1="46.78" x2="55.12" y2="46.78" xlink:href="#s"/>
  </defs>
  <g id="c" data-name="OBJECTS">
    <g>
      <g>
        <g>
          <path d="M82.99,1.65c-4.87-1.28-9.43,2-9.43,2,0,0-1.82-4.04-7.82-3.62s-9.35,4.81-9.35,4.81c0,0-5.77-2.09-11.49,.47s-7.15,6.09-7.15,6.09c0,0-4.13-1.91-10.49,2.78-5.62,4.14-4.84,8.32-4.84,8.32,0,0-4.1,.41-8.17,5.24-1.85,2.2-2.62,3.97-2.9,5.24-.33,1.49-1.32,2.79-2.66,3.67-2.13,1.4-4.96,4.08-6.33,8.9-1.18,4.15,.45,7.48,.45,7.48,0,0-2.68,3.69-2.81,7.18s2.62,7.41,2.62,7.41c-1,3.95-.83,6.65,1.45,8.76,2.28,2.11,5.97,1.41,5.97,1.41,0,0,.03,5.26,4.44,6.59L82.99,1.65Z" fill="url(#d)"/>
          <path d="M82.99,1.65L14.49,84.36l10.13,29.86L89.61,36.22c1.38-1.66,1.88-3.78,1.36-5.75L82.99,1.65Z" fill="url(#e)"/>
          <path d="M79.73,9.25L19.73,81.71c-1.33,1.61-1.75,3.7-1.12,5.57l6.22,18.38c.61,1.78,3.12,2.11,4.39,.58L86.27,37.79c2.3-2.76,3.16-6.31,2.32-9.61l-5.06-18.3c-.41-1.62-2.66-1.99-3.79-.63Z" fill="url(#f)"/>
          <path d="M2.63,67.6c-1,3.95-.83,6.65,1.45,8.76,2.28,2.11,5.97,1.41,5.97,1.41,0,0,.03,5.26,4.44,6.59l10.13,29.86s-6.55-.9-9.92-6.65c0,0-4.58-.25-8.38-10.72-2.51-6.94-5.02-16.46-5.4-21.36-.55-6.92,1.71-7.89,1.71-7.89Z" fill="url(#g)"/>
          <path d="M14.7,107.57s-4.58-.25-8.38-10.72c-2.51-6.94-5.02-16.46-5.4-21.36-.55-6.92,1.71-7.89,1.71-7.89-1,3.95-.83,6.65,1.45,8.76,2.28,2.11,5.97,1.41,5.97,1.41-.16,.8-.36,1.95-.48,3.35-.32,3.64,.07,6.62,.64,9.67,1.34,7.14,3.55,13.98,4.49,16.78Z" fill="url(#h)"/>
        </g>
        <g>
          <path d="M18.92,80.49c-1.47-2-1.68-3.9-2.54-6.09-.21-.53-.19-.87-.67-1.28-2.42-2.03-7.55-.93-5.76-5.74,.25-.66-.18-1.33-.69-1.69-2.55-1.84-3.44-6.76-.4-8.51,.73-.42,.9-1.33,.54-2.05-3.02-6,.46-11.86,6.24-14.25,.65-.27,1.06-.72,1.1-1.45,.32-5.51,5.26-10.19,10.79-10.39,1.07-.04,1.58-.92,1.45-1.9-.69-4.96,6.28-10.48,10.88-8.22,.88,.43,1.91,.08,2.2-.9,1.62-5.38,9.39-8.69,14.25-5.45,.67,.45,1.66,.13,2.05-.54,2.56-4.36,8.48-6.44,12.08-1.59,.58,.79,1.59,1.01,2.36,.3s1.7-1.29,2.9-1c1.88,.45,2.68-2.44,.8-2.89-2.25-.54-4.12,.2-5.82,1.77l2.36,.3c-4.93-6.66-13.43-4.93-17.26,1.59l2.05-.54c-6.5-4.35-16.51,.12-18.65,7.24l2.2-.9c-7.15-3.53-16.34,3.96-15.28,11.6l1.45-1.9c-7.25,.26-13.37,6.2-13.79,13.39l1.1-1.45c-7.71,3.19-12.02,10.73-8.03,18.65l.54-2.05c-5.53,3.19-4.22,10.36,.4,13.69l-.69-1.69c-1.11,2.98-.33,6.71,2.68,8.18,.71,.35,1.53,.37,2.25,.61,1.44,.48,.82-.08,1.49,.71,1.17,1.39,1.64,4.3,2.84,5.93,1.13,1.54,3.74,.04,2.59-1.51h0Z" fill="#c7793f"/>
          <path d="M37.34,59.15c-2.92-7.61-.68-13.86,5.56-18.95,3.33-2.72,7.51-4.96,11.91-3.85,1.87,.47,2.67-2.42,.8-2.89-5.67-1.44-11.06,1.34-15.28,4.97-6.69,5.75-9.11,13.14-5.89,21.53,.69,1.78,3.59,1.01,2.89-.8h0Z" fill="#c7793f"/>
          <path d="M23.74,74.73c-3.22-7.17,7.34-10.51,12.04-12.24,1.8-.66,1.02-3.56-.8-2.89-4.23,1.56-9.08,2.85-12.09,6.45-2.47,2.94-3.33,6.66-1.74,10.2,.79,1.76,3.38,.23,2.59-1.51h0Z" fill="#c7793f"/>
          <path d="M35.9,56.6c-2.61-4.49-5.47-8.96-10.23-11.2-3.47-1.63-10.64-3.06-12.75,1.44-1.94,4.11,3.07,7.91,6.69,8.29,6.46,.69,13.76-4.84,18.15-8.98,1.41-1.33-.72-3.45-2.12-2.12-3.11,2.94-6.84,5.52-10.83,7.09-2.46,.97-5.25,1.54-7.59-.09-2.72-1.91-1.54-3.86,1.32-4.12,6.82-.63,12.52,5.6,15.63,10.95,.97,1.67,3.01,1.1,2.03-.58l-.29-.68Z" fill="#c7793f"/>
          <path d="M38.84,43.99c2.78-4.8,5.87-11.63,4.24-17.3-1.06-3.7-4.55-7.37-8.44-4.87-3.45,2.22-2.33,6.72-.06,9.44,3.76,4.5,11.29,4.87,16.65,4.31,1.9-.2,1.92-3.2,0-3-3.24,.34-6.43,.26-9.6-.64-1.43-.41-9.38-4.7-5.48-7.52,3.93-2.85,4.27,6.63,3.97,8.18-.68,3.52-2.08,6.8-3.87,9.89-.97,1.67,1.62,3.19,2.59,1.51h0Z" fill="#c7793f"/>
          <path d="M52.2,35.51c4.39-2.33,8.93-5.89,10.81-10.66,1.18-3,1.34-8.74-2.43-10.15-3.45-1.3-5.73,2.71-6.36,5.46-1.13,4.92-1.11,10.63,.44,15.44,.59,1.83,3.49,1.05,2.89-.8-.89-2.74-1.12-5.48-1-8.35,.07-1.59-.09-7.81,1.86-8.44l2.19,1.43c.27,1.15,.24,2.29-.08,3.42-.48,1.79-1.65,3.41-2.85,4.77-1.98,2.22-4.38,3.91-7,5.3-1.71,.91-.19,3.5,1.51,2.59h0Z" fill="#c7793f"/>
          <path d="M19.2,64.41c1.93,0,1.93-3,0-3s-1.93,3,0,3h0Z" fill="#c7793f"/>
          <path d="M27.55,40.5c1.93,0,1.93-3,0-3s-1.93,3,0,3h0Z" fill="#c7793f"/>
          <path d="M48.29,23.82c1.93,0,1.93-3,0-3s-1.93,3,0,3h0Z" fill="#c7793f"/>
        </g>
        <path d="M38.07,65.52c-3.67,6.34-.05,11.14,7.96,10.14s22.88-18.94,25.04-28.38c.9-3.91-1.34-14.69-11.35-6.34-10.02,8.35-21.65,24.59-21.65,24.59Z" fill="url(#i)"/>
        <g>
          <path d="M17.85,79.42c-1.47-2-1.68-3.9-2.54-6.09-.21-.53-.19-.87-.67-1.28-2.42-2.03-7.55-.93-5.76-5.74,.25-.66-.18-1.33-.69-1.69-2.55-1.84-3.44-6.76-.4-8.51,.73-.42,.9-1.33,.54-2.05-3.02-6,.46-11.86,6.24-14.25,.65-.27,1.06-.72,1.1-1.45,.32-5.51,5.26-10.19,10.79-10.39,1.07-.04,1.58-.92,1.45-1.9-.69-4.96,6.28-10.48,10.88-8.22,.88,.43,1.91,.08,2.2-.9,1.62-5.38,9.39-8.69,14.25-5.45,.67,.45,1.66,.13,2.05-.54,2.56-4.36,8.48-6.44,12.08-1.59,.58,.79,1.59,1.01,2.36,.3s1.7-1.29,2.9-1c1.88,.45,2.68-2.44,.8-2.89-2.25-.54-4.12,.2-5.82,1.77l2.36,.3c-4.93-6.66-13.43-4.93-17.26,1.59l2.05-.54c-6.5-4.35-16.51,.12-18.65,7.24l2.2-.9c-7.15-3.53-16.34,3.96-15.28,11.6l1.45-1.9c-7.25,.26-13.37,6.2-13.79,13.39l1.1-1.45c-7.71,3.19-12.02,10.73-8.03,18.65l.54-2.05c-5.53,3.19-4.22,10.36,.4,13.69l-.69-1.69c-1.11,2.98-.33,6.71,2.68,8.18,.71,.35,1.53,.37,2.25,.61,1.44,.48,.82-.08,1.49,.71,1.17,1.39,1.64,4.3,2.84,5.93,1.13,1.54,3.74,.04,2.59-1.51h0Z" fill="url(#j)"/>
          <path d="M36.28,58.08c-2.92-7.61-.68-13.86,5.56-18.95,3.33-2.72,7.51-4.96,11.91-3.85,1.87,.47,2.67-2.42,.8-2.89-5.67-1.44-11.06,1.34-15.28,4.97-6.69,5.75-9.11,13.14-5.89,21.53,.69,1.78,3.59,1.01,2.89-.8h0Z" fill="url(#k)"/>
          <path d="M22.67,73.66c-3.22-7.17,7.34-10.51,12.04-12.24,1.8-.66,1.02-3.56-.8-2.89-4.23,1.56-9.08,2.85-12.09,6.45-2.47,2.94-3.33,6.66-1.74,10.2,.79,1.76,3.38,.23,2.59-1.51h0Z" fill="url(#l)"/>
          <path d="M34.93,55.14c-2.61-4.49-5.57-8.58-10.33-10.82-3.47-1.63-10.64-3.06-12.75,1.44-1.94,4.11,3.07,7.91,6.69,8.29,6.46,.69,13.76-4.84,18.15-8.98,1.41-1.33-.72-3.45-2.12-2.12-3.11,2.94-6.84,5.52-10.83,7.09-2.46,.97-5.25,1.54-7.59-.09-2.72-1.91-1.54-3.86,1.32-4.12,6.82-.63,12.52,5.6,15.63,10.95,.97,1.67,3.01,.72,2.03-.96l-.19-.68Z" fill="url(#m)"/>
          <path d="M37.77,42.92c2.78-4.8,5.87-11.63,4.24-17.3-1.06-3.7-4.55-7.37-8.44-4.87-3.45,2.22-2.33,6.72-.06,9.44,3.76,4.5,11.29,4.87,16.65,4.31,1.9-.2,1.92-3.2,0-3-3.24,.34-6.43,.26-9.6-.64-1.43-.41-9.38-4.7-5.48-7.52,3.93-2.85,4.27,6.63,3.97,8.18-.68,3.52-2.08,6.8-3.87,9.89-.97,1.67,1.62,3.19,2.59,1.51h0Z" fill="url(#n)"/>
          <path d="M51.13,34.44c4.39-2.33,8.93-5.89,10.81-10.66,1.18-3,1.34-8.74-2.43-10.15-3.45-1.3-5.73,2.71-6.36,5.46-1.13,4.92-1.11,10.63,.44,15.44,.59,1.83,3.49,1.05,2.89-.8-.89-2.74-1.12-5.48-1-8.35,.07-1.59-.09-7.81,1.86-8.44l2.19,1.43c.27,1.15,.24,2.29-.08,3.42-.48,1.79-1.65,3.41-2.85,4.77-1.98,2.22-4.38,3.91-7,5.3-1.71,.91-.19,3.5,1.51,2.59h0Z" fill="url(#o)"/>
          <path d="M18.14,63.33c1.93,0,1.93-3,0-3s-1.93,3,0,3h0Z" fill="url(#p)"/>
          <path d="M26.48,39.43c1.93,0,1.93-3,0-3s-1.93,3,0,3h0Z" fill="url(#q)"/>
          <path d="M47.23,22.74c1.93,0,1.93-3,0-3s-1.93,3,0,3h0Z" fill="url(#r)"/>
        </g>
      </g>
      <g>
        <path d="M16.63,80.19l-1.39-4.16c-.31-.93-.3-1.92-1.28-2.21-2.37-.71-6.4-2.53-6.22-5.55,.05-.87,.56-1.73-.06-2.52-.31-.4-.8-.61-1.17-.93-.49-.43-.83-.95-1.1-1.54-1.02-2.24-1.62-7.01,1.42-7.89,.46-.13,.27-.86-.2-.72-2.65,.77-2.91,3.69-2.64,6.03,.13,1.11,.36,2.24,.89,3.24,.25,.48,.57,.93,.97,1.3,.15,.14,.33,.25,.47,.39,.58,.59,.74,1.33,.71,2.13-.09,2.57,1.46,4.23,3.63,5.48,.5,.29,1.02,.54,1.56,.77,.72,.3,1.55,.35,1.91,1.07,.81,1.6,1.21,3.6,1.78,5.31,.15,.46,.88,.26,.72-.2h0Z" fill="url(#s)"/>
        <path d="M6.92,53.61c-.78-2.94-.53-6.11,.72-8.88s3.55-5.59,6.68-5.93c.47-.05,.48-.8,0-.75-3.34,.36-5.87,3.2-7.23,6.09s-1.75,6.46-.89,9.67c.12,.47,.85,.27,.72-.2h0Z" fill="url(#t)"/>
        <path d="M14.58,38.31c1.1-5.74,6.02-10.34,11.86-10.95,.22-.02,.36-.15,.38-.38,.31-3.65,1.51-7.54,4.89-9.45,2.5-1.41,5.52-1.41,8.25-.79,.19,.04,.41-.06,.46-.26,1.77-7.05,9.67-7.39,15.52-5.81,.13,.03,.27,0,.36-.1,2.38-2.47,5.71-5.4,9.44-4.86,1.85,.27,3.41,1.45,4.51,2.92,.09,.13,.26,.23,.42,.17,1.49-.54,3.02-1.42,4.62-.8,.45,.17,.65-.55,.2-.72-1.76-.68-3.37,.2-5.02,.8l.42,.17c-2.25-3-5.73-4.13-9.25-2.63-1.5,.64-2.83,1.6-4.05,2.66-.39,.34-.76,.71-1.15,1.07-.44,.4-.48,.45-1.03,.41-.73-.05-1.48-.32-2.21-.43-2.65-.38-5.49-.37-8.02,.61-2.86,1.1-4.75,3.38-5.49,6.34l.46-.26c-3-.69-6.33-.65-9.04,.98-3.48,2.1-4.73,6.14-5.06,9.98l.38-.38c-6.15,.65-11.41,5.41-12.58,11.5-.09,.47,.63,.67,.72,.2h0Z" fill="url(#u)"/>
        <path d="M37.19,21.47c2.67,1,3.66,4.65,3.91,7.21s-.2,5.11-1.08,7.49c-1.92,5.21-5.87,9.74-10.53,12.7-2.18,1.38-4.67,2.66-7.27,2.9s-6.28-.14-7.92-2.48c-1.36-1.94-1.12-4.71,1.61-4.89,1.92-.13,4.25-.21,6.11,.34,2.66,.79,4.17,3.37,6.23,5.03,2.93,2.37,5.23,5.62,5.6,9.46,.05,.48,.8,.48,.75,0-.34-3.52-2.19-6.72-4.77-9.1-1.2-1.11-2.46-2.07-3.56-3.29-.86-.96-1.76-1.77-2.93-2.34-2.15-1.06-4.87-.97-7.21-.86-2.08,.1-3.61,1.26-3.4,3.52,.24,2.72,2.45,4.37,4.93,5.01,2.96,.76,5.92,.41,8.7-.78,5.86-2.51,10.9-7.41,13.61-13.18,1.43-3.05,2.23-6.46,1.83-9.84-.34-2.84-1.49-6.51-4.43-7.61-.45-.17-.65,.56-.2,.72h0Z" fill="url(#v)"/>
        <path d="M61.44,19.16c-.46,1.92-1.56,3.71-2.55,5.41s-2.05,3.29-3.35,4.72c-2.42,2.67-5.54,4.44-9.2,4.5-3.27,.06-6.6-1.08-9.16-3.13-1.22-.98-2.31-2.2-3.03-3.59-1-1.91-.95-4.71,1.38-5.6,.45-.17,.25-.9-.2-.72-2.78,1.07-3.09,4.32-1.83,6.7,1.34,2.54,3.7,4.51,6.29,5.69s5.46,1.68,8.26,1.27c3.18-.46,5.89-2.23,8.02-4.58,1.34-1.48,2.46-3.15,3.46-4.87s2.15-3.59,2.62-5.59c.11-.47-.61-.67-.72-.2h0Z" fill="url(#w)"/>
        <path d="M55.55,34.01c-1.22-3.82-1.54-7.97-.82-11.92,.17-.93,.39-1.85,.69-2.74s.61-2.07,1.28-2.79,1.89-1.47,2.9-1.18,1.71,1.32,1.9,2.33c.09,.47,.81,.27,.72-.2-.33-1.71-1.99-3.42-3.85-2.85-2.29,.7-3.13,2.68-3.77,4.79-1.46,4.76-1.28,10.04,.23,14.76,.15,.46,.87,.26,.72-.2h0Z" fill="url(#x)"/>
        <path d="M21.98,73.8c-2.95-3.25,.31-7.79,3.1-9.82s6.05-2.54,9.15-3.6c.45-.16,.26-.88-.2-.72-3.57,1.22-7.3,1.89-10.26,4.4s-5.29,7-2.32,10.27c.33,.36,.85-.17,.53-.53h0Z" fill="url(#y)"/>
        <path d="M34.61,59.79c-.45-2.37-.8-4.76-.83-7.18-.04-3.42,.88-6.45,2.81-9.29s4.68-5.45,7.67-7.25c3.41-2.05,6.88-2.46,10.74-1.61,.47,.1,.67-.62,.2-.72-3.64-.8-7.08-.6-10.41,1.17s-6.16,4.39-8.36,7.36c-2.07,2.79-3.3,5.95-3.39,9.43-.07,2.78,.33,5.56,.86,8.29,.09,.47,.81,.27,.72-.2h0Z" fill="url(#z)"/>
      </g>
      <g opacity=".21">
        <path d="M22.13,85.04c3.58-4.59,7.48-8.94,11.65-13,.35-.34-.18-.87-.53-.53-4.17,4.06-8.07,8.41-11.65,13-.29,.38,.23,.91,.53,.53h0Z" fill="#fff"/>
      </g>
      <g opacity=".21">
        <path d="M54.47,44.05c9.41-9.8,18.49-19.8,26.86-30.5,.29-.38-.23-.91-.53-.53-8.37,10.71-17.46,20.7-26.86,30.5-.33,.35,.2,.88,.53,.53h0Z" fill="#fff"/>
      </g>
      <g opacity=".21">
        <path d="M40.32,67.14c2.09-5.8,7.1-10.1,11.27-14.43l6.93-7.18c2.04-2.12,4.77-5.12,8.04-4.1,.46,.14,.66-.58,.2-.72-2.71-.84-5.16,.81-7.08,2.59-2.77,2.57-5.3,5.44-7.93,8.16-4.48,4.64-9.91,9.25-12.16,15.47-.16,.45,.56,.65,.72,.2h0Z" fill="#fff"/>
      </g>
      <g opacity=".21">
        <path d="M67.37,44.02v2.05c0,.2,.17,.38,.38,.38s.38-.16,.38-.38v-2.05c0-.2-.17-.38-.38-.38s-.38,.16-.38,.38h0Z" fill="#fff"/>
      </g>
      <g opacity=".21">
        <path d="M21.86,87.66l3.69,11.54c.42,1.32,.7,3.23,1.87,4.14,.82,.65,2.12,.59,2.67-.36,.24-.42-.41-.8-.65-.38-.41,.72-1.36,.43-1.81-.09-.39-.45-.57-1.05-.75-1.61-.49-1.51-.97-3.02-1.45-4.53l-2.85-8.91c-.15-.46-.87-.26-.72,.2h0Z" fill="#fff"/>
      </g>
      <g opacity=".21">
        <path d="M42.48,71.97c2.37,1.1,5.39,.45,7.03-1.6,.3-.37-.23-.91-.53-.53-1.42,1.78-4.04,2.45-6.12,1.49-.44-.2-.82,.44-.38,.65h0Z" fill="#fff"/>
      </g>
    </g>
  </g>
</svg>