<?xml version="1.0" encoding="UTF-8"?>
<svg id="b" data-name="Layer 2" xmlns="http://www.w3.org/2000/svg" width="68.87" height="67.06" xmlns:xlink="http://www.w3.org/1999/xlink" viewBox="0 0 68.87 67.06">
  <defs>
    <radialGradient id="d" cx="-877.99" cy="-651.76" fx="-877.99" fy="-663.07" r="11.39" gradientTransform="translate(-942.36 -4.55) rotate(-152.98) scale(1 -.67)" gradientUnits="userSpaceOnUse">
      <stop offset=".47" stop-color="#e9e5e1"/>
      <stop offset=".84" stop-color="#d6cec6"/>
    </radialGradient>
    <radialGradient id="e" cx="-886.21" cy="-620.31" fx="-895.23" fy="-620.31" r="9.7" gradientTransform="translate(-967.4 -9.16) rotate(-152.98) scale(1 -.67)" gradientUnits="userSpaceOnUse">
      <stop offset=".3" stop-color="#cec5bc"/>
      <stop offset="1" stop-color="#f8f7f5"/>
    </radialGradient>
    <linearGradient id="f" x1="-905.63" y1="-612.14" x2="-909.25" y2="-673.73" gradientTransform="translate(-859.53 -618.35) rotate(-108.47) scale(1 -1)" gradientUnits="userSpaceOnUse">
      <stop offset=".35" stop-color="#fff"/>
      <stop offset=".49" stop-color="#fdfcfc"/>
      <stop offset=".56" stop-color="#f7f6f4"/>
      <stop offset=".62" stop-color="#edeae7"/>
      <stop offset=".64" stop-color="#e9e5e1"/>
      <stop offset=".81" stop-color="#d9d3cc"/>
      <stop offset=".97" stop-color="#b7ac9e"/>
    </linearGradient>
    <linearGradient id="g" x1="58.51" y1="46.97" x2="68.64" y2="46.97" gradientTransform="matrix(1, 0, 0, 1, 0, 0)" gradientUnits="userSpaceOnUse">
      <stop offset="0" stop-color="#eabd54"/>
      <stop offset=".15" stop-color="#f5d674"/>
      <stop offset=".28" stop-color="#ffed91"/>
      <stop offset=".48" stop-color="#ffed91"/>
      <stop offset=".71" stop-color="#c27917"/>
      <stop offset=".74" stop-color="#cb8c29"/>
      <stop offset=".82" stop-color="#e1b753"/>
      <stop offset=".89" stop-color="#f1d671"/>
      <stop offset=".96" stop-color="#fbe983"/>
      <stop offset="1" stop-color="#fff08a"/>
    </linearGradient>
    <linearGradient id="h" x1="36.74" y1="32.94" x2="62.67" y2="32.94" xlink:href="#g"/>
    <linearGradient id="i" x1="31.87" y1="7.52" x2="43.39" y2="7.52" xlink:href="#g"/>
    <linearGradient id="j" x1="14.37" y1="17.76" x2="35.6" y2="17.76" xlink:href="#g"/>
    <linearGradient id="k" x1="50.54" y1="58.29" x2="60.86" y2="58.29" xlink:href="#g"/>
    <linearGradient id="l" x1="45.63" y1="55.17" x2="52.44" y2="55.17" xlink:href="#g"/>
    <linearGradient id="m" x1="20.92" y1="45.29" x2="45.85" y2="45.29" xlink:href="#g"/>
    <linearGradient id="n" x1="2.52" y1="23.54" x2="16.32" y2="23.54" xlink:href="#g"/>
    <linearGradient id="o" x1="14.35" y1="25.44" x2="18.46" y2="25.44" xlink:href="#g"/>
    <linearGradient id="p" x1="35.69" y1="16.31" x2="46.7" y2="16.31" xlink:href="#g"/>
    <linearGradient id="q" x1=".25" y1="31.76" x2="26.43" y2="31.76" xlink:href="#g"/>
    <linearGradient id="r" x1="-890.56" y1="-652.18" x2="-884.48" y2="-652.18" gradientTransform="translate(-859.53 -618.35) rotate(-108.47) scale(1 -1)" xlink:href="#g"/>
  </defs>
  <g id="c" data-name="OBJECTS">
    <g>
      <path d="M36.14,17.07c.83-1.67,3.32-4.46,5.51-8.86,2.2-4.41,1.31-7.85-.44-7.01s-3.07,1.79-5.28,3.91-3.53,4.98-3.6,6.27-1.33,1.33-1.33,1.33" fill="url(#d)"/>
      <path d="M16.35,24.2c-3.19-1.42-5.63-1.96-8.34-1.28s-6.03,.89-5.29,2.44c.75,1.56,9.09,4.88,10.38,5.35s3.25-6.51,3.25-6.51Z" fill="url(#e)"/>
      <path d="M21.68,10.25c2.09-.57,6.51-.24,10.27,2.42,3.35,2.36,3.39,3.72,3.39,3.72,2.28-1.74,5.38-4.13,6.26-4.94,1.44-1.34,4.68-1.9,4.98,.05,.59,3.69-4.67,8.59-6.06,9.56-.84,.59-2.42,1.18-3.84,1.69,2.22,1.27,6.32,2.79,7.85,3.55,4.75,2.37,20.35,.99,17.38,16.8,0,0,5.16-1.6,6.08,1.89,.91,3.49-2.58,4.79-4.13,5.43-1.56,.65-4.94,1.14-5.43-.72,0,0-1.38,1.53-.01,3.35s1.57,1.87,1.79,2.2c1.49,2.2-3.81,8.7-4.49,10.07-.68,1.37-2.11,3.18-4.63-.73-1.19-1.84,.65-5.05,.65-5.05,0,0-5.36-.97-5.95-8.09,0,0-12.13,.67-25.05-12.24,0,0-2.49,.83-4.92-.14-2.44-.97-9.07-6.72-10.53-7.21-1.46-.49-4.78-1.65-4.54-4.33,.24-2.68,3.36-3.56,5.31-3.07,1.95,.49,4.49,2.73,5.95,3.7,1.46,.97,2.39,.83,2.39,.83,0,0,.77-4.15,3.92-6.52,0,0-3.03-2.32-3.83-4.71-.8-2.39-.46-3.27,.95-4.75,1.4-1.48,4.17-2.18,6.26-2.75Z" fill="url(#f)"/>
    </g>
    <path d="M27.03,17.88c-1.1,.48-2.56,.6-3.36-1.17-.05-.12,0-.26,.12-.31,.48-.2,1.68-.61,2.45-.17s.89,1.1,.92,1.41c0,.1-.04,.19-.13,.23Z"/>
    <path d="M58.27,49.97c.36,1.33,1.96,1.28,3.07,1.31,1.32,.04,2.55-.36,3.67-1.06,.64-.4,1.24-.86,1.86-1.29s1.26-.95,1.65-1.64c.78-1.37,.19-2.92-1.11-3.72-.82-.5-1.87-.84-2.83-.9-1.05-.07-2.01,.38-3.02,.59-.47,.1-.27,.82,.2,.72,.71-.15,1.38-.43,2.1-.54,.78-.11,1.56,.09,2.29,.37,1.25,.48,2.53,1.58,1.76,3.04-.32,.61-.87,1.06-1.42,1.43-.52,.35-1.02,.73-1.54,1.08-.85,.57-1.88,1.11-2.92,1.16-.52,.03-1.05,0-1.57-.05-.55-.04-1.28-.06-1.45-.71-.13-.47-.85-.27-.72,.2h0Z" fill="url(#g)"/>
    <path d="M62.17,43.11c.94-2.86,1.27-6.51-.36-9.2-.83-1.38-2.18-2.61-3.4-3.64s-2.59-1.93-4.14-2.37c-1.85-.52-3.83-.56-5.71-.99-1.48-.34-2.93-.78-4.35-1.32-2.48-.95-4.83-2.18-7.33-3.05-.46-.16-.65,.57-.2,.72,2.2,.76,4.27,1.8,6.42,2.68,2.73,1.12,5.56,1.86,8.48,2.28,1.84,.27,3.39,.54,4.97,1.58,1.44,.94,2.71,2.19,3.83,3.49,2.3,2.63,2.09,6.49,1.06,9.63-.15,.46,.57,.66,.72,.2h0Z" fill="url(#h)"/>
    <path d="M37.97,14.87c1.44-2.01,2.71-4.16,3.82-6.37s1.95-4.7,1.84-7.23c-.12-2.68-3.23-.44-4.27,.38-1.83,1.45-3.65,2.95-5.12,4.77-.73,.91-1.36,1.88-1.81,2.95-.21,.5-.3,.96-.3,1.5,0,.42,.17,1.3-.34,1.47-.45,.16-.26,.88,.2,.72,.63-.22,.85-.71,.89-1.34,.02-.37-.02-.74,0-1.12,.02-.52,.23-.98,.46-1.44,.95-1.92,2.45-3.5,4.04-4.91,.62-.55,4.95-4.5,5.49-3.25,.18,.41,.01,1.21-.03,1.65-.06,.69-.19,1.37-.37,2.03-.3,1.15-.75,2.25-1.28,3.32-1.12,2.25-2.41,4.43-3.87,6.47-.28,.39,.37,.77,.65,.38h0Z" fill="url(#i)"/>
    <path d="M35.77,15.49c-4.48-5.56-12.59-7.34-18.88-3.77-1.05,.6-2.3,1.45-2.6,2.7-.25,1.07-.22,2.26-.07,3.34,.16,1.19,.65,1.74,1.48,2.58,1.11,1.11,2.3,2.16,3.56,3.1,2.94,2.18,6.68,2.98,10.08,1.32,.43-.21,.05-.86-.38-.65-2.8,1.37-6.07,.89-8.6-.81-1.14-.77-2.2-1.67-3.21-2.61-.69-.64-1.77-1.41-2.05-2.34s-.28-2.06-.18-3.03c.13-1.4,1.03-2.17,2.22-2.87,2.85-1.69,6.42-2.23,9.66-1.6s6.32,2.52,8.45,5.17c.3,.38,.83-.16,.53-.53h0Z" fill="url(#j)"/>
    <path d="M51.72,59.12c-.75,1.04-1.52,2.2-1.41,3.55,.09,1.14,.79,2.1,1.53,2.92,.64,.71,1.53,1.76,2.61,1.39,.47-.16,.79-.56,1.06-.96,.45-.66,.86-1.35,1.28-2.03,.92-1.45,1.84-2.91,2.76-4.36,.7-1.11,1.47-2.27,1.55-3.62,.06-1.03-.29-2.08-1.24-2.58-.62-.33-1.19-.47-1.36-1.25-.16-.69-.01-1.46,.29-2.09,.21-.43-.44-.81-.65-.38-.65,1.36-.75,3.34,.78,4.11,.46,.23,.93,.35,1.19,.84,.33,.62,.29,1.38,.12,2.04-.33,1.28-1.26,2.44-1.95,3.54l-2.22,3.52c-.35,.56-.69,1.14-1.07,1.69-.18,.26-.35,.59-.63,.75-.52,.29-.94-.08-1.28-.38-.79-.73-1.67-1.67-1.95-2.75-.35-1.35,.49-2.52,1.23-3.56,.28-.39-.37-.77-.65-.38h0Z" fill="url(#k)"/>
    <path d="M45.5,51.1c-.22,1.13-.1,2.32,.25,3.41,.39,1.21,1.11,2.18,1.99,3.08,1.01,1.03,2.45,2.15,3.99,1.87,.33-.06,.64-.19,.89-.4,.37-.31-.16-.84-.53-.53-.04,.03,.09-.06,0,0-.04,.03-.08,.05-.13,.08-.05,.03-.14,.06-.09,.04-.07,.03-.14,.05-.21,.07-.35,.09-.78,.04-1.17-.08-.74-.24-1.38-.74-1.93-1.27-.8-.76-1.56-1.62-1.96-2.66s-.6-2.27-.38-3.39c.09-.47-.63-.67-.72-.2h0Z" fill="url(#l)"/>
    <path d="M45.84,50.77c-5.1,.2-9.69-1.89-14.19-4.06-3.92-1.88-7.51-4.23-10.37-7.54-.32-.37-.85,.17-.53,.53,2.99,3.45,6.77,5.88,10.88,7.83,4.53,2.14,9.1,4.19,14.22,3.99,.48-.02,.48-.77,0-.75h0Z" fill="url(#m)"/>
    <path d="M16.5,24.08c-3.94-3.35-9.95-1.99-14.11,.24-.43,.23-.05,.88,.38,.65,3.82-2.04,9.54-3.46,13.2-.35,.37,.31,.9-.22,.53-.53h0Z" fill="url(#n)"/>
    <path d="M14.83,28.78c.69-2.4,2-4.58,3.81-6.31,.35-.33-.18-.86-.53-.53-1.9,1.82-3.28,4.12-4,6.64-.13,.46,.59,.66,.72,.2h0Z" fill="url(#o)"/>
    <path d="M37.4,22.91c3.61-1.55,6.84-4.32,8.7-7.8,.75-1.39,1.55-4.02-.14-5.11-1.53-.99-3.77,.67-4.96,1.56-1.8,1.35-3.4,2.99-5.45,3.99-.43,.21-.05,.86,.38,.65,1.49-.73,2.76-1.8,4.03-2.85s2.73-2.35,4.38-2.78c.53-.14,1.11-.15,1.46,.32,.3,.4,.39,.95,.39,1.44-.01,.99-.45,1.94-.94,2.77-.88,1.5-2,2.86-3.29,4.03-1.46,1.32-3.13,2.38-4.94,3.15-.44,.19-.06,.84,.38,.65h0Z" fill="url(#p)"/>
    <path d="M26.08,36.73c-1.14,1.14-2.79,1.61-4.34,1.87-1.69,.28-3.16,.64-4.89,.19-4.46-1.16-7.31-5.12-11.24-7.25-1.43-.77-5.86-2.62-4.66-4.93,1.26-2.43,4.72-2.5,6.85-1.47,2.96,1.44,5.87,5.44,9.59,4.17,.45-.15,.26-.88-.2-.72-1.85,.63-3.76-.43-5.22-1.49-1.6-1.16-3.1-2.51-5.04-3.11-1.72-.53-3.45-.33-4.96,.66-1.05,.68-2.22,1.74-1.92,3.13s1.77,2.52,2.9,3.22c.85,.53,1.79,.9,2.66,1.4,1.09,.62,2.09,1.38,3.06,2.16,2.96,2.36,6.06,5.19,10.08,5.26,1.26,.02,2.6-.35,3.84-.61,1.46-.32,2.94-.86,4.02-1.94,.34-.34-.19-.87-.53-.53h0Z" fill="url(#q)"/>
    <path d="M36.39,21.3c2.75-1.64,7.54-5.09,8-6.85s.19-2.55-1.45-1.69-6.16,5.09-7.23,5.31,.68,3.23,.68,3.23Z" fill="url(#r)"/>
    <path d="M26.56,17.14c0,.23-1.31,.02-1.22-.43s1.2-.16,1.22,.43Z" fill="#fff"/>
    <path d="M25.03,17.62c-.03,.15-.36,.06-.62-.2s-.41-.45-.3-.45,.97,.38,.92,.65Z" fill="#fff"/>
  </g>
</svg>